<svg class="svg-icon" style="width: 1em; height: 1em;vertical-align: middle;fill: currentColor;overflow: hidden;" viewBox="0 0 1024 1024" version="1.1" xmlns="http://www.w3.org/2000/svg"><path d="M784.479323 437.498192c-26.152637-128.856763-138.203642-225.972615-274.528494-225.972615-108.311845 0-201.687512 61.624523-248.375857 151.271262-112.052029 11.207249-199.828165 106.443287-199.828165 222.251873 0 123.249045 100.853989 224.103034 224.103034 224.103034l485.554698 0c102.713336 0 186.752358-84.039022 186.752358-186.752358C958.155874 523.405771 881.595174 443.095677 784.479323 437.498192L784.479323 437.498192zM771.403516 734.451418 285.848819 734.451418c-82.178651 0-149.401682-67.223031-149.401682-149.401682 0-82.187861 67.223031-149.421124 149.401682-149.421124l26.152637 0c24.273846-85.909625 102.713336-149.402705 197.948351-149.402705 113.911376 0 205.427696 91.506087 205.427696 205.427696l0 18.675338 56.024991 0c61.625546 0 112.051005 50.440809 112.051005 112.070448C883.454522 684.024935 833.029062 734.451418 771.403516 734.451418L771.403516 734.451418zM771.403516 734.451418"  /></svg>